<svg width="1898" height="106" viewBox="0 0 1898 106" fill="none" xmlns="http://www.w3.org/2000/svg">
<path d="M1783.75 2.45703H1816.46L1833.26 44.7278C1836.28 52.2253 1838.73 58.9473 1840.63 64.8936H1841.15C1843.04 59.0335 1845.5 52.2684 1848.51 44.5985L1865.06 2.45703H1897.77V103.416H1871.14V64.3765C1871.14 58.344 1871.74 50.8465 1872.95 41.8839H1872.43L1864.29 64.2473L1848.64 102.511H1833L1817.49 64.2473L1808.96 41.8839H1808.44C1809.82 50.0709 1810.51 57.5684 1810.51 64.3765V103.416H1783.75V2.45703Z" fill="black" fill-opacity="0.05"/>
<path d="M1697.28 2.45703H1770.18V24.4326H1724.94V41.6253H1767.6V63.4717H1732.57L1725.97 47.9595H1724.94V81.1814H1771.09V103.416H1697.28V2.45703Z" fill="black" fill-opacity="0.05"/>
<path d="M1630.45 24.6912H1600.85V2.45703H1687.46V24.6912H1657.86V103.545H1630.45V24.6912Z" fill="black" fill-opacity="0.05"/>
<path d="M1551.09 105.871C1541.61 105.871 1533.25 104.19 1526.01 100.829C1518.68 97.4683 1513.08 92.8146 1509.2 86.8683C1505.33 80.922 1503.47 74.1138 1503.64 66.4439H1533.25C1533.07 71.0114 1534.58 74.674 1537.77 77.4317C1541.05 80.1894 1545.48 81.5683 1551.09 81.5683C1555.57 81.5683 1559.06 80.965 1561.56 79.7585C1564.06 78.552 1565.31 76.8284 1565.31 74.5878C1565.31 72.261 1563.58 70.1496 1560.13 68.2537C1556.52 66.3577 1550.53 63.9447 1542.17 61.0146C1534.76 58.4293 1528.55 55.8008 1523.55 53.1293C1513.3 47.5276 1508.17 39.9008 1508.17 30.2488C1508.17 24.3024 1509.94 19.0455 1513.47 14.478C1517 9.82439 1521.96 6.24797 1528.34 3.74878C1534.71 1.24959 1541.99 0 1550.18 0C1559.06 0 1566.77 1.55122 1573.32 4.65366C1579.96 7.7561 1585 11.9789 1588.44 17.322C1591.98 22.665 1593.66 28.6976 1593.49 35.4195H1563.88C1564.06 32.0585 1562.89 29.387 1560.39 27.4049C1557.98 25.3366 1554.53 24.3024 1550.05 24.3024C1546.52 24.3024 1543.67 24.9057 1541.52 26.1122C1539.45 27.2325 1538.42 28.6976 1538.42 30.5073C1538.42 31.8862 1538.89 33.0496 1539.84 33.9976C1541.05 35.0317 1542.73 35.9797 1544.88 36.8415C1547.38 37.9618 1551.17 39.3837 1556.26 41.1073L1561.43 43.0463C1573.67 47.5276 1582.41 52.2244 1587.67 57.1366C1592.93 62.0488 1595.55 67.952 1595.55 74.8463C1595.55 81.1374 1593.74 86.6098 1590.13 91.2634C1586.59 95.9171 1581.46 99.4935 1574.74 101.993C1568.11 104.578 1560.22 105.871 1551.09 105.871Z" fill="black" fill-opacity="0.05"/>
<path d="M1465.3 2.45703H1492.31V103.416H1464.91L1465.3 2.45703Z" fill="black" fill-opacity="0.05"/>
<path d="M1408.94 105.871C1399.46 105.871 1391.1 104.19 1383.86 100.829C1376.54 97.4683 1370.94 92.8146 1367.06 86.8683C1363.18 80.922 1361.33 74.1138 1361.5 66.4439H1391.1C1390.93 71.0114 1392.44 74.674 1395.63 77.4317C1398.9 80.1894 1403.34 81.5683 1408.94 81.5683C1413.42 81.5683 1416.91 80.965 1419.41 79.7585C1421.91 78.552 1423.16 76.8284 1423.16 74.5878C1423.16 72.261 1421.44 70.1496 1417.99 68.2537C1414.37 66.3577 1408.38 63.9447 1400.02 61.0146C1392.61 58.4293 1386.41 55.8008 1381.41 53.1293C1371.15 47.5276 1366.02 39.9008 1366.02 30.2488C1366.02 24.3024 1367.79 19.0455 1371.32 14.478C1374.86 9.82439 1379.81 6.24797 1386.19 3.74878C1392.57 1.24959 1399.85 0 1408.04 0C1416.91 0 1424.63 1.55122 1431.18 4.65366C1437.81 7.7561 1442.85 11.9789 1446.3 17.322C1449.83 22.665 1451.51 28.6976 1451.34 35.4195H1421.74C1421.91 32.0585 1420.75 29.387 1418.25 27.4049C1415.84 25.3366 1412.39 24.3024 1407.91 24.3024C1404.37 24.3024 1401.53 24.9057 1399.38 26.1122C1397.31 27.2325 1396.27 28.6976 1396.27 30.5073C1396.27 31.8862 1396.75 33.0496 1397.7 33.9976C1398.9 35.0317 1400.58 35.9797 1402.74 36.8415C1405.24 37.9618 1409.03 39.3837 1414.11 41.1073L1419.28 43.0463C1431.52 47.5276 1440.27 52.2244 1445.52 57.1366C1450.78 62.0488 1453.41 67.952 1453.41 74.8463C1453.41 81.1374 1451.6 86.6098 1447.98 91.2634C1444.45 95.9171 1439.32 99.4935 1432.6 101.993C1425.96 104.578 1418.08 105.871 1408.94 105.871Z" fill="black" fill-opacity="0.05"/>
<path d="M1251.4 2.45703H1324.96V24.5619H1279.07V41.8839H1321.72V63.9887H1286.82L1280.1 48.218H1279.07V103.416H1251.4V2.45703Z" fill="black" fill-opacity="0.05"/>
<path d="M1169.44 2.45703H1197.1V79.6302H1241.31V103.416H1169.44V2.45703Z" fill="black" fill-opacity="0.05"/>
<path d="M1107.25 106C1097.34 106 1088.55 103.802 1080.88 99.4073C1073.21 95.0984 1067.27 89.0228 1063.04 81.1805C1058.91 73.252 1056.84 64.1602 1056.84 53.9049C1056.84 43.1325 1058.95 33.6959 1063.17 25.5951C1067.4 17.4081 1073.3 11.1171 1080.88 6.72195C1088.55 2.24065 1097.34 0 1107.25 0C1117.25 0 1126.04 2.24065 1133.62 6.72195C1141.29 11.2894 1147.2 17.7098 1151.33 25.9829C1155.56 34.1699 1157.67 43.5634 1157.67 54.1634C1157.67 64.3325 1155.6 73.3813 1151.46 81.3098C1147.24 89.152 1141.29 95.2276 1133.62 99.5366C1126.04 103.846 1117.25 106 1107.25 106ZM1107.25 82.2146C1111.56 82.2146 1115.44 81.0512 1118.89 78.7244C1122.42 76.3114 1125.18 72.8642 1127.16 68.3829C1129.23 63.9016 1130.26 58.6447 1130.26 52.6122C1130.26 46.752 1129.23 41.6675 1127.16 37.3585C1125.18 32.9634 1122.42 29.6024 1118.89 27.2756C1115.44 24.9488 1111.52 23.7854 1107.12 23.7854C1102.73 23.7854 1098.81 24.9919 1095.36 27.4049C1091.91 29.7317 1089.2 33.1358 1087.22 37.6171C1085.23 42.0122 1084.24 47.1398 1084.24 53C1084.24 58.8602 1085.23 64.0309 1087.22 68.5122C1089.29 72.9073 1092.04 76.3114 1095.49 78.7244C1099.02 81.0512 1102.94 82.2146 1107.25 82.2146Z" fill="black" fill-opacity="0.05"/>
<path d="M999.918 105.871C990.007 105.871 981.217 103.673 973.547 99.278C965.877 94.8829 959.931 88.678 955.708 80.6634C951.571 72.6488 949.503 63.4707 949.503 53.1293C949.503 42.4431 951.614 33.1358 955.837 25.2073C959.974 17.1927 965.834 10.9878 973.418 6.59268C981.001 2.19756 989.792 0 999.788 0C1007.8 0 1015.04 1.50813 1021.51 4.52439C1027.97 7.45447 1033.23 11.5911 1037.28 16.9341C1041.41 22.2772 1044 28.439 1045.03 35.4195H1017.37C1015.99 31.8 1013.79 28.9561 1010.78 26.8878C1007.76 24.8195 1004.27 23.7854 1000.31 23.7854C992.98 23.7854 987.249 26.3707 983.113 31.5415C978.976 36.626 976.908 43.6927 976.908 52.7415C976.908 61.8764 978.976 69.0724 983.113 74.3293C987.249 79.5 992.937 82.0854 1000.18 82.0854C1005.86 82.0854 1010.52 80.7065 1014.14 77.9488C1017.76 75.1049 1019.7 71.3561 1019.95 66.7024H1003.92L991.903 46.7951H1046.32V59.722C1046.32 69.2016 1044.47 77.4317 1040.77 84.4122C1037.06 91.3065 1031.72 96.6065 1024.74 100.312C1017.76 104.018 1009.48 105.871 999.918 105.871Z" fill="black" fill-opacity="0.05"/>
<path d="M822.949 2.45703H850.742V44.34L881.249 2.45703H912.274L878.147 47.7009L913.308 103.416H881.508L850.742 51.0619V103.416H823.079L822.949 2.45703Z" fill="black" fill-opacity="0.05"/>
<path d="M729.153 2.45703H772.717C780.387 2.45703 787.022 3.83589 792.624 6.59362C798.226 9.35134 802.535 13.3156 805.551 18.4863C808.653 23.657 810.205 29.7757 810.205 36.8424C810.205 50.4587 804.56 60.0676 793.27 65.6692L814.47 103.416H785.127L766.77 70.0644L759.531 57.0083L757.075 52.2253H756.558V103.416H729.153V2.45703ZM766.124 48.7351C776.466 48.7351 781.636 44.857 781.636 37.1009C781.636 28.5692 776.466 24.3034 766.124 24.3034H756.558V48.7351H766.124Z" fill="black" fill-opacity="0.05"/>
<path d="M648.986 2.45703H685.956L720.6 103.416H690.739L684.922 83.6375H666.308L662.042 61.7912H678.459L668.635 28.3107L646.271 103.416H616.41L648.986 2.45703Z" fill="black" fill-opacity="0.05"/>
<path d="M527.644 2.45703H568.363C581.807 2.45703 592.321 5.51638 599.905 11.6351C607.488 17.7538 611.28 26.3717 611.28 37.4887C611.28 44.9001 609.557 51.2343 606.109 56.4912C602.662 61.9204 597.836 66.1001 591.631 69.0302C585.426 71.9603 578.317 73.4253 570.302 73.4253H569.656L555.307 55.3278H555.178V103.416H527.644V2.45703ZM564.744 52.0961C570.259 52.0961 574.611 50.8034 577.8 48.218C581.074 45.6326 582.712 42.0562 582.712 37.4887C582.712 33.3522 581.074 30.1204 577.8 27.7936C574.611 25.4668 570.259 24.3034 564.744 24.3034H555.178V52.0961H564.744Z" fill="black" fill-opacity="0.05"/>
<path d="M418.474 2.45703H455.445L490.089 103.416H460.228L454.411 83.6375H435.796L431.53 61.7912H447.947L438.123 28.3107L415.759 103.416H385.898L418.474 2.45703Z" fill="black" fill-opacity="0.05"/>
<path d="M305.371 2.45703H378.278V24.4326H333.034V41.6253H375.693V63.4717H340.661L334.069 47.9595H333.034V81.1814H379.183V103.416H305.371V2.45703Z" fill="black" fill-opacity="0.05"/>
<path d="M211.576 2.45703H255.14C262.81 2.45703 269.445 3.83589 275.047 6.59362C280.649 9.35134 284.957 13.3156 287.974 18.4863C291.076 23.657 292.627 29.7757 292.627 36.8424C292.627 50.4587 286.983 60.0676 275.693 65.6692L296.893 103.416H267.549L249.193 70.0644L241.954 57.0083L239.498 52.2253H238.981V103.416H211.576V2.45703ZM248.547 48.7351C258.888 48.7351 264.059 44.857 264.059 37.1009C264.059 28.5692 258.888 24.3034 248.547 24.3034H238.981V48.7351H248.547Z" fill="black" fill-opacity="0.05"/>
<path d="M147.966 106C138.056 106 129.266 103.802 121.596 99.4073C113.926 95.0984 107.979 89.0228 103.757 81.1805C99.6201 73.252 97.5518 64.1602 97.5518 53.9049C97.5518 43.1325 99.6631 33.6959 103.886 25.5951C108.109 17.4081 114.012 11.1171 121.596 6.72195C129.266 2.24065 138.056 0 147.966 0C157.963 0 166.753 2.24065 174.337 6.72195C182.007 11.2894 187.91 17.7098 192.047 25.9829C196.27 34.1699 198.381 43.5634 198.381 54.1634C198.381 64.3325 196.313 73.3813 192.176 81.3098C187.953 89.152 182.007 95.2276 174.337 99.5366C166.753 103.846 157.963 106 147.966 106ZM147.966 82.2146C152.275 82.2146 156.153 81.0512 159.601 78.7244C163.134 76.3114 165.892 72.8642 167.874 68.3829C169.942 63.9016 170.976 58.6447 170.976 52.6122C170.976 46.752 169.942 41.6675 167.874 37.3585C165.892 32.9634 163.134 29.6024 159.601 27.2756C156.153 24.9488 152.232 23.7854 147.837 23.7854C143.442 23.7854 139.521 24.9919 136.074 27.4049C132.627 29.7317 129.912 33.1358 127.93 37.6171C125.948 42.0122 124.957 47.1398 124.957 53C124.957 58.8602 125.948 64.0309 127.93 68.5122C129.998 72.9073 132.756 76.3114 136.203 78.7244C139.736 81.0512 143.657 82.2146 147.966 82.2146Z" fill="black" fill-opacity="0.05"/>
<path d="M0 2.45703H27.7927V44.34L58.3 2.45703H89.3244L55.1976 47.7009L90.3586 103.416H58.5585L27.7927 51.0619V103.416H0.129268L0 2.45703Z" fill="black" fill-opacity="0.05"/>
</svg>
