<svg width="328" height="326" viewBox="0 0 328 326" fill="none" xmlns="http://www.w3.org/2000/svg">
<path d="M255.949 2.24805H278.562L299.751 63.9967H281.487L277.929 51.9H266.544L263.935 38.5383H273.976L267.967 18.0608L254.289 63.9967H236.025L255.949 2.24805Z" fill="black" fill-opacity="0.1"/>
<path d="M186.772 2.24805H231.364V15.6889H203.692V26.2043H229.783V39.5661H208.357L204.325 30.0785H203.692V50.3978H231.918V63.9967H186.772V2.24805Z" fill="black" fill-opacity="0.1"/>
<path d="M129.405 2.24805H156.049C160.74 2.24805 164.799 3.09139 168.225 4.77808C171.651 6.46478 174.287 8.88939 176.131 12.0519C178.029 15.2145 178.978 18.9568 178.978 23.279C178.978 31.607 175.525 37.4841 168.62 40.9102L181.587 63.9967H163.639L152.412 43.5983L147.985 35.6129L146.483 32.6875H146.166V63.9967H129.405V2.24805ZM152.017 30.5528C158.342 30.5528 161.505 28.1809 161.505 23.4371C161.505 18.2189 158.342 15.6098 152.017 15.6098H146.166V30.5528H152.017Z" fill="black" fill-opacity="0.1"/>
<path d="M90.5003 65.5773C84.4388 65.5773 79.0625 64.2332 74.3714 61.5451C69.6803 58.9096 66.0433 55.1936 63.4606 50.3971C60.9305 45.5478 59.6655 39.987 59.6655 33.7147C59.6655 27.126 60.9569 21.3544 63.5396 16.3997C66.1224 11.3924 69.733 7.54459 74.3714 4.85643C79.0625 2.11555 84.4388 0.745117 90.5003 0.745117C96.6146 0.745117 101.991 2.11555 106.629 4.85643C111.32 7.65001 114.931 11.5768 117.461 16.6369C120.044 21.6443 121.335 27.3896 121.335 33.8728C121.335 40.0925 120.07 45.6269 117.54 50.4761C114.957 55.2727 111.32 58.9887 106.629 61.6241C101.991 64.2596 96.6146 65.5773 90.5003 65.5773ZM90.5003 51.0296C93.1358 51.0296 95.5077 50.318 97.6161 48.8949C99.7772 47.419 101.464 45.3107 102.676 42.5698C103.941 39.8289 104.574 36.6137 104.574 32.924C104.574 29.3398 103.941 26.23 102.676 23.5945C101.464 20.9063 99.7772 18.8507 97.6161 17.4275C95.5077 16.0044 93.1094 15.2928 90.4213 15.2928C87.7331 15.2928 85.3349 16.0308 83.2265 17.5066C81.1181 18.9298 79.4578 21.0118 78.2455 23.7526C77.0332 26.4408 76.427 29.577 76.427 33.1612C76.427 36.7454 77.0332 39.908 78.2455 42.6488C79.5105 45.337 81.1972 47.419 83.3056 48.8949C85.4666 50.318 87.8649 51.0296 90.5003 51.0296Z" fill="black" fill-opacity="0.1"/>
<path d="M0 2.24805H16.9987V27.8647L35.6577 2.24805H54.633L33.7602 29.9203L55.2655 63.9967H35.8158L16.9987 31.976V63.9967H0.0790636L0 2.24805Z" fill="black" fill-opacity="0.1"/>
<path d="M180.615 88.3584H197.614V113.975L216.273 88.3584H235.248L214.375 116.031L235.881 150.107H216.431L197.614 118.086V150.107H180.694L180.615 88.3584Z" fill="black" fill-opacity="0.1"/>
<path d="M123.248 88.3584H149.893C154.584 88.3584 158.642 89.2017 162.068 90.8884C165.494 92.5751 168.13 94.9997 169.975 98.1623C171.872 101.325 172.821 105.067 172.821 109.389C172.821 117.717 169.369 123.594 162.464 127.021L175.43 150.107H157.483L146.256 129.709L141.828 121.723L140.326 118.798H140.01V150.107H123.248V88.3584ZM145.86 116.663C152.185 116.663 155.348 114.291 155.348 109.547C155.348 104.329 152.185 101.72 145.86 101.72H140.01V116.663H145.86Z" fill="black" fill-opacity="0.1"/>
<path d="M74.2155 88.3584H96.8277L118.017 150.107H99.7531L96.1952 138.01H84.81L82.201 124.649H92.2421L86.2332 104.171L72.5552 150.107H54.2915L74.2155 88.3584Z" fill="black" fill-opacity="0.1"/>
<path d="M0 88.3584H24.905C33.1277 88.3584 39.5582 90.2296 44.1966 93.9719C48.835 97.7143 51.1542 102.985 51.1542 109.785C51.1542 114.318 50.1 118.192 47.9916 121.407C45.8833 124.728 42.9316 127.284 39.1365 129.076C35.3414 130.868 30.9929 131.764 26.091 131.764H25.6957L16.9196 120.695H16.8405V150.107H0V88.3584ZM22.6913 118.719C26.0647 118.719 28.7264 117.928 30.6767 116.347C32.6796 114.766 33.6811 112.578 33.6811 109.785C33.6811 107.255 32.6796 105.278 30.6767 103.855C28.7264 102.432 26.0647 101.72 22.6913 101.72H16.8405V118.719H22.6913Z" fill="black" fill-opacity="0.1"/>
<path d="M184.649 174.391H229.636V187.911H201.569V198.505H227.66V212.025H206.312L202.201 202.379H201.569V236.139H184.649V174.391Z" fill="black" fill-opacity="0.1"/>
<path d="M134.52 174.391H151.439V221.592H178.479V236.139H134.52V174.391Z" fill="black" fill-opacity="0.1"/>
<path d="M96.4842 237.72C90.4227 237.72 85.0464 236.376 80.3553 233.688C75.6642 231.052 72.0273 227.336 69.4445 222.54C66.9145 217.69 65.6494 212.13 65.6494 205.857C65.6494 199.269 66.9408 193.497 69.5236 188.542C72.1063 183.535 75.7169 179.687 80.3553 176.999C85.0464 174.258 90.4227 172.888 96.4842 172.888C102.598 172.888 107.975 174.258 112.613 176.999C117.304 179.793 120.915 183.719 123.445 188.779C126.028 193.787 127.319 199.532 127.319 206.015C127.319 212.235 126.054 217.769 123.524 222.619C120.941 227.415 117.304 231.131 112.613 233.767C107.975 236.402 102.598 237.72 96.4842 237.72ZM96.4842 223.172C99.1197 223.172 101.492 222.461 103.6 221.037C105.761 219.562 107.448 217.453 108.66 214.712C109.925 211.971 110.558 208.756 110.558 205.067C110.558 201.482 109.925 198.373 108.66 195.737C107.448 193.049 105.761 190.993 103.6 189.57C101.492 188.147 99.0933 187.435 96.4052 187.435C93.717 187.435 91.3188 188.173 89.2104 189.649C87.1021 191.072 85.4417 193.154 84.2294 195.895C83.0171 198.583 82.4109 201.72 82.4109 205.304C82.4109 208.888 83.0171 212.051 84.2294 214.791C85.4944 217.48 87.1811 219.562 89.2895 221.037C91.4505 222.461 93.8488 223.172 96.4842 223.172Z" fill="black" fill-opacity="0.1"/>
<path d="M30.8348 237.641C24.7733 237.641 19.3969 236.297 14.7058 233.609C10.0147 230.92 6.37779 227.125 3.79505 222.223C1.26501 217.321 0 211.708 0 205.383C0 198.847 1.29139 193.154 3.87414 188.305C6.40417 183.403 9.98837 179.608 14.6268 176.92C19.2652 174.232 24.6415 172.888 30.7558 172.888C35.6577 172.888 40.0853 173.81 44.0385 175.655C47.9916 177.447 51.2069 179.977 53.6842 183.245C56.2143 186.513 57.7955 190.282 58.4281 194.551H41.5084C40.6651 192.337 39.321 190.598 37.4762 189.333C35.6314 188.068 33.4966 187.435 31.072 187.435C26.5917 187.435 23.0866 189.017 20.5565 192.179C18.0265 195.289 16.7615 199.611 16.7615 205.146C16.7615 210.733 18.0265 215.134 20.5565 218.349C23.0866 221.512 26.5654 223.093 30.993 223.093C34.4718 223.093 37.318 222.25 39.5318 220.563C41.7456 218.824 42.9316 216.531 43.0897 213.685H33.2858L25.9329 201.509H59.2187V209.415C59.2187 215.213 58.0854 220.247 55.8189 224.516C53.5524 228.733 50.2845 231.975 46.015 234.241C41.7456 236.508 36.6855 237.641 30.8348 237.641Z" fill="black" fill-opacity="0.1"/>
<path d="M258.266 262.005H278.269L288.547 287.859C290.392 292.444 291.894 296.556 293.054 300.193H293.37C294.529 296.608 296.032 292.471 297.876 287.78L307.997 262.005H328V323.754H311.713V299.876C311.713 296.187 312.082 291.601 312.82 286.119H312.503L307.522 299.797L297.956 323.2H288.389L278.901 299.797L273.683 286.119H273.367C274.21 291.127 274.632 295.712 274.632 299.876V323.754H258.266V262.005Z" fill="black" fill-opacity="0.1"/>
<path d="M205.376 262.005H249.968V275.446H222.296V285.961H248.387V299.323H226.961L222.929 289.835H222.296V310.155H250.522V323.754H205.376V262.005Z" fill="black" fill-opacity="0.1"/>
<path d="M164.504 275.604H146.398V262.005H199.371V275.604H181.265V323.833H164.504V275.604Z" fill="black" fill-opacity="0.1"/>
<path d="M115.962 325.255C110.164 325.255 105.052 324.227 100.624 322.172C96.144 320.116 92.7179 317.27 90.346 313.633C87.974 309.996 86.8408 305.832 86.9462 301.141H105.052C104.946 303.934 105.869 306.174 107.819 307.861C109.822 309.548 112.536 310.391 115.962 310.391C118.703 310.391 120.838 310.022 122.367 309.284C123.895 308.546 124.66 307.492 124.66 306.122C124.66 304.699 123.605 303.407 121.497 302.248C119.283 301.088 115.62 299.612 110.507 297.82C105.974 296.239 102.179 294.631 99.122 292.997C92.8496 289.571 89.7134 284.906 89.7134 279.003C89.7134 275.366 90.7939 272.151 92.955 269.357C95.1161 266.511 98.1468 264.323 102.047 262.795C105.948 261.266 110.402 260.502 115.409 260.502C120.838 260.502 125.556 261.451 129.562 263.348C133.62 265.246 136.704 267.829 138.812 271.096C140.973 274.364 142.001 278.054 141.895 282.165H123.79C123.895 280.11 123.184 278.476 121.655 277.263C120.179 275.998 118.071 275.366 115.33 275.366C113.169 275.366 111.43 275.735 110.112 276.473C108.847 277.158 108.214 278.054 108.214 279.161C108.214 280.004 108.504 280.716 109.084 281.296C109.822 281.928 110.85 282.508 112.168 283.035C113.696 283.72 116.015 284.59 119.125 285.644L122.288 286.83C129.772 289.571 135.122 292.444 138.338 295.448C141.553 298.453 143.16 302.063 143.16 306.28C143.16 310.128 142.054 313.475 139.84 316.321C137.679 319.167 134.542 321.355 130.431 322.883C126.373 324.464 121.55 325.255 115.962 325.255Z" fill="black" fill-opacity="0.1"/>
<path d="M63.4915 262.005H80.0158V323.754H63.2544L63.4915 262.005Z" fill="black" fill-opacity="0.1"/>
<path d="M29.023 325.255C23.225 325.255 18.1123 324.227 13.6848 322.172C9.2045 320.116 5.77841 317.27 3.4065 313.633C1.03459 309.996 -0.0986896 305.832 0.00672862 301.141H18.1123C18.0069 303.934 18.9293 306.174 20.8795 307.861C22.8825 309.548 25.597 310.391 29.023 310.391C31.7639 310.391 33.8987 310.022 35.4273 309.284C36.9558 308.546 37.72 307.492 37.72 306.122C37.72 304.699 36.6659 303.407 34.5575 302.248C32.3437 301.088 28.6805 299.612 23.5677 297.82C19.0347 296.239 15.2397 294.631 12.1825 292.997C5.91017 289.571 2.77396 284.906 2.77396 279.003C2.77396 275.366 3.85447 272.151 6.01555 269.357C8.17662 266.511 11.2074 264.323 15.1079 262.795C19.0083 261.266 23.4623 260.502 28.4696 260.502C33.8987 260.502 38.6162 261.451 42.6221 263.348C46.6807 265.246 49.7641 267.829 51.8725 271.096C54.0335 274.364 55.0614 278.054 54.956 282.165H36.8504C36.9558 280.11 36.2443 278.476 34.7157 277.263C33.2398 275.998 31.1315 275.366 28.3906 275.366C26.2295 275.366 24.4901 275.735 23.1724 276.473C21.9074 277.158 21.2749 278.054 21.2749 279.161C21.2749 280.004 21.5647 280.716 22.1445 281.296C22.8825 281.928 23.9103 282.508 25.2281 283.035C26.7566 283.72 29.0758 284.59 32.1856 285.644L35.3481 286.83C42.8328 289.571 48.1828 292.444 51.3981 295.448C54.6133 298.453 56.221 302.063 56.221 306.28C56.221 310.128 55.1141 313.475 52.9003 316.321C50.7393 319.167 47.603 321.355 43.4917 322.883C39.4331 324.464 34.6102 325.255 29.023 325.255Z" fill="black" fill-opacity="0.1"/>
</svg>
