<svg width="328" height="325" viewBox="0 0 328 325" fill="none" xmlns="http://www.w3.org/2000/svg">
<path d="M269.949 1.50293H292.562L313.751 63.2516H295.487L291.929 51.1549H280.544L277.935 37.7931H287.976L281.967 17.3157L268.289 63.2516H250.025L269.949 1.50293Z" fill="#00423A"/>
<path d="M200.772 1.50293H245.364V14.9437H217.692V25.4592H243.783V38.821H222.357L218.325 29.3333H217.692V49.6527H245.918V63.2516H200.772V1.50293Z" fill="#00423A"/>
<path d="M143.405 1.50293H170.05C174.741 1.50293 178.799 2.34628 182.226 4.03297C185.652 5.71966 188.287 8.14428 190.132 11.3068C192.029 14.4694 192.978 18.2117 192.978 22.5339C192.978 30.8619 189.526 36.739 182.621 40.165L195.587 63.2516H177.64L166.413 42.8532L161.985 34.8678L160.483 31.9424H160.167V63.2516H143.405V1.50293ZM166.017 29.8077C172.343 29.8077 175.505 27.4358 175.505 22.692C175.505 17.4738 172.343 14.8647 166.017 14.8647H160.167V29.8077H166.017Z" fill="#00423A"/>
<path d="M104.5 64.8322C98.4383 64.8322 93.062 63.4881 88.3709 60.7999C83.6798 58.1645 80.0428 54.4485 77.4601 49.652C74.9301 44.8027 73.665 39.2419 73.665 32.9695C73.665 26.3809 74.9564 20.6093 77.5392 15.6546C80.1219 10.6472 83.7325 6.79947 88.3709 4.11131C93.062 1.37044 98.4383 0 104.5 0C110.614 0 115.99 1.37044 120.629 4.11131C125.32 6.90489 128.931 10.8317 131.461 15.8918C134.043 20.8992 135.335 26.6444 135.335 33.1277C135.335 39.3473 134.07 44.8818 131.54 49.731C128.957 54.5276 125.32 58.2435 120.629 60.879C115.99 63.5145 110.614 64.8322 104.5 64.8322ZM104.5 50.2845C107.135 50.2845 109.507 49.5729 111.616 48.1498C113.777 46.6739 115.463 44.5655 116.676 41.8247C117.941 39.0838 118.573 35.8685 118.573 32.1789C118.573 28.5947 117.941 25.4848 116.676 22.8494C115.463 20.1612 113.777 18.1056 111.616 16.6824C109.507 15.2593 107.109 14.5477 104.421 14.5477C101.733 14.5477 99.3344 15.2856 97.226 16.7615C95.1176 18.1846 93.4573 20.2666 92.245 23.0075C91.0327 25.6957 90.4265 28.8319 90.4265 32.4161C90.4265 36.0003 91.0327 39.1629 92.245 41.9037C93.51 44.5919 95.1967 46.6739 97.3051 48.1498C99.4661 49.5729 101.864 50.2845 104.5 50.2845Z" fill="#00423A"/>
<path d="M14 1.50293H30.9987V27.1195L49.6577 1.50293H68.633L47.7602 29.1752L69.2655 63.2516H49.8158L30.9987 31.2309V63.2516H14.0791L14 1.50293Z" fill="#00423A"/>
<path d="M226.615 87.6133H243.614V113.23L262.273 87.6133H281.248L260.375 115.286L281.881 149.362H262.431L243.614 117.341V149.362H226.694L226.615 87.6133Z" fill="#00423A"/>
<path d="M169.248 87.6133H195.893C200.584 87.6133 204.642 88.4566 208.068 90.1433C211.494 91.83 214.13 94.2546 215.975 97.4172C217.872 100.58 218.821 104.322 218.821 108.644C218.821 116.972 215.369 122.849 208.464 126.275L221.43 149.362H203.483L192.256 128.964L187.828 120.978L186.326 118.053H186.01V149.362H169.248V87.6133ZM191.86 115.918C198.185 115.918 201.348 113.546 201.348 108.802C201.348 103.584 198.185 100.975 191.86 100.975H186.01V115.918H191.86Z" fill="#00423A"/>
<path d="M120.216 87.6133H142.828L164.017 149.362H145.754L142.196 137.265H130.811L128.201 123.903H138.243L132.234 103.426L118.556 149.362H100.292L120.216 87.6133Z" fill="#00423A"/>
<path d="M46 87.6133H70.905C79.1277 87.6133 85.5582 89.4845 90.1966 93.2268C94.835 96.9691 97.1542 102.24 97.1542 109.04C97.1542 113.573 96.1 117.447 93.9916 120.662C91.8833 123.983 88.9316 126.539 85.1365 128.331C81.3414 130.123 76.9929 131.019 72.091 131.019H71.6957L62.9196 119.95H62.8405V149.362H46V87.6133ZM68.6913 117.974C72.0647 117.974 74.7264 117.183 76.6767 115.602C78.6796 114.021 79.6811 111.833 79.6811 109.04C79.6811 106.509 78.6796 104.533 76.6767 103.11C74.7264 101.687 72.0647 100.975 68.6913 100.975H62.8405V117.974H68.6913Z" fill="#00423A"/>
<path d="M233.649 173.646H278.637V187.165H250.569V197.76H276.66V211.28H255.313L251.202 201.634H250.569V235.394H233.649V173.646Z" fill="#00423A"/>
<path d="M183.52 173.646H200.439V220.846H227.479V235.394H183.52V173.646Z" fill="#00423A"/>
<path d="M145.484 236.975C139.423 236.975 134.046 235.631 129.355 232.943C124.664 230.307 121.027 226.591 118.445 221.795C115.914 216.945 114.649 211.384 114.649 205.112C114.649 198.523 115.941 192.752 118.524 187.797C121.106 182.79 124.717 178.942 129.355 176.254C134.046 173.513 139.423 172.143 145.484 172.143C151.598 172.143 156.975 173.513 161.613 176.254C166.304 179.047 169.915 182.974 172.445 188.034C175.028 193.042 176.319 198.787 176.319 205.27C176.319 211.49 175.054 217.024 172.524 221.874C169.941 226.67 166.304 230.386 161.613 233.022C156.975 235.657 151.598 236.975 145.484 236.975ZM145.484 222.427C148.12 222.427 150.492 221.715 152.6 220.292C154.761 218.816 156.448 216.708 157.66 213.967C158.925 211.226 159.558 208.011 159.558 204.321C159.558 200.737 158.925 197.627 157.66 194.992C156.448 192.304 154.761 190.248 152.6 188.825C150.492 187.402 148.093 186.69 145.405 186.69C142.717 186.69 140.319 187.428 138.21 188.904C136.102 190.327 134.442 192.409 133.229 195.15C132.017 197.838 131.411 200.974 131.411 204.559C131.411 208.143 132.017 211.305 133.229 214.046C134.494 216.734 136.181 218.816 138.289 220.292C140.451 221.715 142.849 222.427 145.484 222.427Z" fill="#00423A"/>
<path d="M79.8348 236.896C73.7733 236.896 68.3969 235.552 63.7058 232.863C59.0147 230.175 55.3778 226.38 52.795 221.478C50.265 216.576 49 210.963 49 204.638C49 198.102 50.2914 192.409 52.8741 187.56C55.4042 182.658 58.9884 178.863 63.6268 176.175C68.2652 173.487 73.6415 172.143 79.7558 172.143C84.6577 172.143 89.0853 173.065 93.0385 174.91C96.9916 176.702 100.207 179.232 102.684 182.5C105.214 185.768 106.796 189.537 107.428 193.806H90.5084C89.6651 191.592 88.321 189.853 86.4762 188.588C84.6314 187.323 82.4966 186.69 80.072 186.69C75.5917 186.69 72.0866 188.272 69.5565 191.434C67.0265 194.544 65.7615 198.866 65.7615 204.401C65.7615 209.988 67.0265 214.389 69.5565 217.604C72.0866 220.767 75.5654 222.348 79.993 222.348C83.4718 222.348 86.318 221.505 88.5318 219.818C90.7456 218.079 91.9316 215.786 92.0897 212.939H82.2858L74.9329 200.764H108.219V208.67C108.219 214.468 107.085 219.502 104.819 223.771C102.552 227.988 99.2845 231.229 95.015 233.496C90.7456 235.762 85.6855 236.896 79.8348 236.896Z" fill="#00423A"/>
<path d="M258.266 261.26H278.269L288.547 287.114C290.392 291.699 291.894 295.811 293.054 299.448H293.37C294.529 295.863 296.032 291.726 297.876 287.035L307.997 261.26H328V323.008H311.713V299.131C311.713 295.442 312.082 290.856 312.82 285.374H312.503L307.522 299.052L297.956 322.455H288.389L278.901 299.052L273.683 285.374H273.367C274.21 290.382 274.632 294.967 274.632 299.131V323.008H258.266V261.26Z" fill="#00423A"/>
<path d="M205.377 261.26H249.969V274.701H222.297V285.216H248.388V298.578H226.961L222.929 289.09H222.297V309.41H250.522V323.008H205.377V261.26Z" fill="#00423A"/>
<path d="M164.504 274.859H146.398V261.26H199.371V274.859H181.265V323.088H164.504V274.859Z" fill="#00423A"/>
<path d="M115.962 324.51C110.164 324.51 105.052 323.482 100.624 321.426C96.144 319.371 92.7179 316.525 90.346 312.888C87.974 309.251 86.8408 305.087 86.9462 300.396H105.052C104.946 303.189 105.869 305.429 107.819 307.116C109.822 308.803 112.536 309.646 115.962 309.646C118.703 309.646 120.838 309.277 122.367 308.539C123.895 307.801 124.66 306.747 124.66 305.377C124.66 303.953 123.605 302.662 121.497 301.502C119.283 300.343 115.62 298.867 110.507 297.075C105.974 295.494 102.179 293.886 99.122 292.252C92.8496 288.826 89.7134 284.161 89.7134 278.258C89.7134 274.621 90.7939 271.406 92.955 268.612C95.1161 265.766 98.1468 263.578 102.047 262.05C105.948 260.521 110.402 259.757 115.409 259.757C120.838 259.757 125.556 260.706 129.562 262.603C133.62 264.501 136.704 267.083 138.812 270.351C140.973 273.619 142.001 277.309 141.895 281.42H123.79C123.895 279.365 123.184 277.731 121.655 276.518C120.179 275.253 118.071 274.621 115.33 274.621C113.169 274.621 111.43 274.99 110.112 275.728C108.847 276.413 108.214 277.309 108.214 278.416C108.214 279.259 108.504 279.971 109.084 280.551C109.822 281.183 110.85 281.763 112.168 282.29C113.696 282.975 116.015 283.845 119.125 284.899L122.288 286.085C129.772 288.826 135.122 291.699 138.338 294.703C141.553 297.707 143.16 301.318 143.16 305.535C143.16 309.382 142.054 312.729 139.84 315.576C137.679 318.422 134.542 320.609 130.431 322.138C126.373 323.719 121.55 324.51 115.962 324.51Z" fill="#00423A"/>
<path d="M63.491 261.26H80.0154V323.008H63.2539L63.491 261.26Z" fill="#00423A"/>
<path d="M29.023 324.51C23.225 324.51 18.1123 323.482 13.6848 321.426C9.2045 319.371 5.77841 316.525 3.4065 312.888C1.03459 309.251 -0.0986896 305.087 0.00672862 300.396H18.1123C18.0069 303.189 18.9293 305.429 20.8795 307.116C22.8825 308.803 25.597 309.646 29.023 309.646C31.7639 309.646 33.8987 309.277 35.4273 308.539C36.9558 307.801 37.72 306.747 37.72 305.377C37.72 303.953 36.6659 302.662 34.5575 301.502C32.3437 300.343 28.6805 298.867 23.5677 297.075C19.0347 295.494 15.2397 293.886 12.1825 292.252C5.91017 288.826 2.77396 284.161 2.77396 278.258C2.77396 274.621 3.85447 271.406 6.01555 268.612C8.17662 265.766 11.2074 263.578 15.1079 262.05C19.0083 260.521 23.4623 259.757 28.4696 259.757C33.8987 259.757 38.6162 260.706 42.6221 262.603C46.6807 264.501 49.7641 267.083 51.8725 270.351C54.0335 273.619 55.0614 277.309 54.956 281.42H36.8504C36.9558 279.365 36.2443 277.731 34.7157 276.518C33.2398 275.253 31.1315 274.621 28.3906 274.621C26.2295 274.621 24.4901 274.99 23.1724 275.728C21.9074 276.413 21.2749 277.309 21.2749 278.416C21.2749 279.259 21.5647 279.971 22.1445 280.551C22.8825 281.183 23.9103 281.763 25.228 282.29C26.7566 282.975 29.0758 283.845 32.1856 284.899L35.3481 286.085C42.8328 288.826 48.1828 291.699 51.3981 294.703C54.6133 297.707 56.221 301.318 56.221 305.535C56.221 309.382 55.1141 312.729 52.9003 315.576C50.7392 318.422 47.603 320.609 43.4917 322.138C39.4331 323.719 34.6102 324.51 29.023 324.51Z" fill="#00423A"/>
</svg>
